#!OML:ASF E:/inclinewalkrobotboard/Project1/Captureday1/Session1/subject1.ASF
:FULLY-SPECIFIED
:DEGREES
151
root 0 0 0 1.2013112840633662 -3.0109120843397057 2.9442550121541435
lowerback 12.150696222252943 0.6881492919599814 -0.9703014137599694
upperback -4.434872405808537 0.7181170743192583 -0.8180236939941844
thorax -11.66496086016069 0.3418150680981376 -0.49936163543130624
lowerneck -6.040546447448268 1.8155604685565654 4.78537950292146
upperneck 18.43918563769413 3.4261329197563857 -8.582802026739596
head 6.751915569512793 1.2665173525325883 -3.307890935721197
rclavicle -2.4611578881187915E-15 -2.39511333402661E-15
rhumerus 20.1122546615983 13.881386649169544 -46.54564097397815
rradius 72.31868841921944
rwrist 28.093174238931546
rhand -34.58867335820182 -57.574404661587316
rfingers 7.125020000000001
rthumb -7.732200492312293 -87.51925306583026
lclavicle -1.6131714046110108E-15 -2.143756698957878E-15
lhumerus 21.936495514649216 -13.61420115493724 45.499978563069675
lradius 70.74054336317657
lwrist -21.902782342559505
lhand -45.225119196338746 -69.69575800967013
lfingers 7.125020000000011
lthumb -18.005575250503917 -40.438194436187146
rfemur -37.41809815558811 -2.9869585359604223 11.935565101592088
rtibia 62.16390362476582
rfoot -9.225154950148095 -14.673121435359526
rtoes -11.012838204956758
lfemur -13.163323463472953 4.634402675224831 -20.138728953392608
ltibia 67.36237273023211
lfoot -15.311942966162608 -10.865756344404723
ltoes -16.50272793319465
152
root 0 0 0 1.2236006898157763 -3.017241511820134 2.962825308646742
lowerback 12.212461460786747 0.6308287149279515 -1.030682167963342
upperback -4.405841899304688 0.6402645370729825 -0.7827626825250104
thorax -11.670001614555307 0.3056445813722665 -0.4156861194813522
lowerneck -6.100899468632889 1.822209783693595 4.742689194304081
upperneck 18.385421694727803 3.441169020187581 -8.559245279613464
head 6.743498609478961 1.2719607301387827 -3.2921274247578918
rclavicle -2.666045741167701E-15 -2.29177066145725E-15
rhumerus 20.45985691972622 14.308663854641727 -46.73841324744959
rradius 72.60544407691948
rwrist 27.866534797028926
rhand -34.61832122592827 -57.66678577976467
rfingers 7.125020000000001
rthumb -7.76227562293386 -87.60453430244307
lclavicle -1.6586073966966432E-15 -2.009853747891023E-15
lhumerus 22.220811063869206 -14.080477388938396 45.61653910035341
lradius 71.05825257689479
lwrist -21.661154860053465
lhand -45.26116173632728 -69.42856337892366
lfingers 7.125020000000012
lthumb -18.040172635069748 -40.18160904420127
rfemur -38.789211596774194 -2.7336666562011915 12.171610959392334
rtibia 59.776997326439236
rfoot -11.762355008058488 -15.837191891673937
rtoes -10.453301587513906
lfemur -14.570722249505678 4.825601442488989 -20.27466923691202
ltibia 66.73519486624141
lfoot -17.37755466323587 -9.43753946900295
ltoes -15.721902708875536
153
root 0 0 0 1.2936981354288837 -3.0482883090122463 2.9209110244879244
lowerback 12.212892476717883 0.6276231634815744 -1.006707931003937
upperback -4.404809544001583 0.6417035831003263 -0.7660869912545879
thorax -11.66521628491234 0.3055830785590509 -0.4117148808884668
lowerneck -6.121470124863832 1.8284056901523023 4.7382257959608305
upperneck 18.34410996718141 3.450172519147462 -8.558159596694976
head 6.73286922303378 1.276644880896626 -3.2899802864516934
rclavicle -2.638212546367355E-15 -2.117782071689802E-15
rhumerus 20.82480087047152 14.780185584438916 -46.986132855994086
rradius 72.9036735802748
rwrist 27.583468083690008
rhand -34.639770822374345 -57.7128249330729
rfingers 7.125020000000001
rthumb -7.783954425821024 -87.63875227994876
lclavicle -1.5867651197603015E-15 -1.813670269313295E-15
lhumerus 22.38423731306139 -14.407677891513693 45.721493458695505
lradius 71.26010868255673
lwrist -21.472222453750668
lhand -45.27077479659513 -69.16962834971567
lfingers 7.125020000000012
lthumb -18.04799066699539 -39.92697726762458
rfemur -38.42060483801578 -2.495043205319873 12.793781240881897
rtibia 57.465231355088264
rfoot -14.925301694325018 -16.630125210167115
rtoes -11.304338708037989
lfemur -16.122666059187118 4.6703453978862735 -20.032798125819145
ltibia 64.79515198131855
lfoot -19.92775600947275 -7.732401793861188
ltoes -16.052518141540986
154
root 0 0 0 1.3971073627932036 -3.1163722604569872 2.8331099385401757
lowerback 12.188819294544949 0.6604008225090648 -0.9239184009653546
upperback -4.417232157534322 0.6966082750104696 -0.7583898256746756
thorax -11.658818970306312 0.3298930171707867 -0.45792821023314106
lowerneck -6.1271438703337004 1.8378314690186726 4.757332410110987
upperneck 18.292785445821664 3.460514394909632 -8.573558214091621
head 6.716278443469075 1.283074108250339 -3.296446442838514
rclavicle -2.5730741840441616E-15 -1.889240282311054E-15
rhumerus 21.2737009287613 15.350611873877908 -47.274041167490566
rradius 73.27103803054214
rwrist 27.250628667845138
rhand -34.67024057217773 -57.78303568112167
rfingers 7.125020000000001
rthumb -7.814608662738289 -87.6994275433347
lclavicle -1.4952689781638816E-15 -1.5556309342581278E-15
lhumerus 22.542100263289697 -14.722576781378756 45.82045069916692
lradius 71.45449854037419
lwrist -21.29224953027613
lhand -45.28030561782316 -68.91920014812652
lfingers 7.125020000000012
lthumb -18.05603723955168 -39.68132090508783
rfemur -36.98938610321285 -2.204825173633041 13.805263837470509
rtibia 54.77879087350839
rfoot -19.099589218465276 -17.393481121128712
rtoes -12.85846497233909
lfemur -18.23265111538431 4.348109405864571 -19.389749991329122
ltibia 61.93519144569538
lfoot -22.864780032789692 -5.6327544080570675
ltoes -16.957034570446385
